<svg xmlns="http://www.w3.org/2000/svg" viewBox="0 0 1400 1000">
  <defs>
    <radialGradient id="skin" cx="50%" cy="58%" r="34%">
      <stop offset="0%" stop-color="#ffb26f"/>
      <stop offset="28%" stop-color="#d97942"/>
      <stop offset="55%" stop-color="#6e301b"/>
      <stop offset="78%" stop-color="#120b09"/>
      <stop offset="100%" stop-color="#050505"/>
    </radialGradient>
    <radialGradient id="iris" cx="50%" cy="50%" r="50%">
      <stop offset="0%" stop-color="#5b311e"/>
      <stop offset="45%" stop-color="#2f1d13"/>
      <stop offset="70%" stop-color="#17100d"/>
      <stop offset="100%" stop-color="#050505"/>
    </radialGradient>
    <linearGradient id="shadow" x1="0" y1="0" x2="1" y2="1">
      <stop offset="0%" stop-color="#050505"/>
      <stop offset="100%" stop-color="#000000"/>
    </linearGradient>
    <filter id="blur-lg">
      <feGaussianBlur stdDeviation="18"/>
    </filter>
  </defs>

  <rect width="1400" height="1000" fill="#050505"/>
  <ellipse cx="705" cy="560" rx="360" ry="250" fill="url(#skin)"/>
  <ellipse cx="710" cy="560" rx="180" ry="125" fill="#f1b784" opacity=".55"/>
  <ellipse cx="710" cy="565" rx="125" ry="110" fill="url(#iris)"/>
  <circle cx="710" cy="565" r="54" fill="#0a0908"/>
  <circle cx="680" cy="528" r="16" fill="#ffffff" opacity=".65"/>
  <path d="M385 400C495 250 930 220 1095 400" stroke="#130d0b" stroke-width="98" stroke-linecap="round"/>
  <path d="M400 735C575 860 905 820 1075 690" stroke="#0b0908" stroke-width="118" stroke-linecap="round"/>
  <path d="M900 260C1030 310 1125 390 1190 520" stroke="#171110" stroke-width="70" stroke-linecap="round" opacity=".95"/>
  <path d="M805 235C935 255 1045 300 1125 390" stroke="#241715" stroke-width="38" stroke-linecap="round" opacity=".95"/>
  <path d="M990 300C1090 350 1175 450 1215 545" stroke="#171110" stroke-width="24" stroke-linecap="round" opacity=".8"/>

  <polygon points="560,240 1215,390 1120,630 445,870 250,595" fill="url(#shadow)" opacity=".9"/>
  <polygon points="618,302 1130,420 1062,604 522,812 350,604" fill="url(#shadow)" opacity=".76"/>

  <ellipse cx="740" cy="625" rx="250" ry="180" fill="#ff9b58" opacity=".16" filter="url(#blur-lg)"/>
  <ellipse cx="840" cy="405" rx="200" ry="130" fill="#a7532c" opacity=".08" filter="url(#blur-lg)"/>
</svg>
