<svg width="1600" height="1200" viewBox="0 0 1600 1200" fill="none" xmlns="http://www.w3.org/2000/svg">
  <rect width="1600" height="1200" fill="#0C0C13"/>
  <circle cx="1270" cy="220" r="220" fill="#8B5CF6" fill-opacity="0.22"/>
  <circle cx="280" cy="940" r="260" fill="#F59E0B" fill-opacity="0.16"/>
  <rect x="84" y="84" width="1432" height="1032" rx="42" fill="#101019" stroke="rgba(255,255,255,0.08)"/>
  <rect x="132" y="128" width="1336" height="68" rx="22" fill="#12121D"/>
  <rect x="166" y="146" width="44" height="36" rx="12" fill="url(#paint0_linear)"/>
  <rect x="228" y="154" width="96" height="12" rx="6" fill="#FFFFFF"/>
  <rect x="1166" y="148" width="92" height="12" rx="6" fill="#A1A1AA"/>
  <rect x="1278" y="142" width="154" height="40" rx="20" fill="#8B5CF6"/>
  <rect x="132" y="234" width="1336" height="432" rx="34" fill="#0E0E17"/>
  <rect x="132" y="234" width="1336" height="432" rx="34" fill="url(#paint1_linear)"/>
  <rect x="194" y="300" width="268" height="16" rx="8" fill="#FDE68A"/>
  <rect x="194" y="338" width="754" height="72" rx="36" fill="#FFFFFF"/>
  <rect x="194" y="432" width="606" height="22" rx="11" fill="#C4B5FD"/>
  <rect x="194" y="482" width="186" height="54" rx="27" fill="#8B5CF6"/>
  <rect x="396" y="482" width="214" height="54" rx="27" fill="transparent" stroke="#8B5CF6" stroke-width="3"/>
  <rect x="194" y="584" width="1080" height="2" fill="rgba(255,255,255,0.08)"/>
  <rect x="224" y="718" width="340" height="248" rx="28" fill="#131320" stroke="rgba(255,255,255,0.08)"/>
  <rect x="630" y="718" width="340" height="248" rx="28" fill="#131320" stroke="rgba(255,255,255,0.08)"/>
  <rect x="1036" y="718" width="340" height="248" rx="28" fill="#131320" stroke="rgba(255,255,255,0.08)"/>
  <rect x="262" y="758" width="52" height="52" rx="16" fill="url(#paint2_linear)"/>
  <rect x="668" y="758" width="52" height="52" rx="16" fill="url(#paint2_linear)"/>
  <rect x="1074" y="758" width="52" height="52" rx="16" fill="url(#paint2_linear)"/>
  <rect x="262" y="834" width="168" height="16" rx="8" fill="#FFFFFF"/>
  <rect x="668" y="834" width="188" height="16" rx="8" fill="#FFFFFF"/>
  <rect x="1074" y="834" width="194" height="16" rx="8" fill="#FFFFFF"/>
  <rect x="262" y="870" width="224" height="14" rx="7" fill="#A1A1AA"/>
  <rect x="668" y="870" width="220" height="14" rx="7" fill="#A1A1AA"/>
  <rect x="1074" y="870" width="218" height="14" rx="7" fill="#A1A1AA"/>
  <text x="134" y="1080" fill="#FFFFFF" font-family="Arial, sans-serif" font-size="54" font-weight="700">Cyber X</text>
  <text x="134" y="1122" fill="#A1A1AA" font-family="Arial, sans-serif" font-size="26" letter-spacing="2">CONSTRUCTION &amp; INNOVATION LANDING SITE</text>
  <defs>
    <linearGradient id="paint0_linear" x1="166" y1="146" x2="210" y2="182" gradientUnits="userSpaceOnUse">
      <stop stop-color="#8B5CF6"/>
      <stop offset="1" stop-color="#F59E0B"/>
    </linearGradient>
    <linearGradient id="paint1_linear" x1="132" y1="234" x2="1468" y2="666" gradientUnits="userSpaceOnUse">
      <stop stop-color="#17172A"/>
      <stop offset="0.5" stop-color="#11111C"/>
      <stop offset="1" stop-color="#151522"/>
    </linearGradient>
    <linearGradient id="paint2_linear" x1="262" y1="758" x2="314" y2="810" gradientUnits="userSpaceOnUse">
      <stop stop-color="#8B5CF6"/>
      <stop offset="1" stop-color="#F59E0B"/>
    </linearGradient>
  </defs>
</svg>
