<svg width="1600" height="1200" viewBox="0 0 1600 1200" fill="none" xmlns="http://www.w3.org/2000/svg">
  <rect width="1600" height="1200" fill="#07111F"/>
  <circle cx="1275" cy="210" r="190" fill="url(#paint0_radial)" fill-opacity="0.8"/>
  <circle cx="310" cy="950" r="280" fill="url(#paint1_radial)" fill-opacity="0.5"/>
  <rect x="92" y="88" width="1416" height="1024" rx="38" fill="#0D1727" stroke="rgba(255,255,255,0.08)"/>
  <rect x="138" y="134" width="1324" height="78" rx="24" fill="#101D31"/>
  <rect x="174" y="158" width="52" height="52" rx="18" fill="url(#paint2_linear)"/>
  <rect x="248" y="164" width="160" height="14" rx="7" fill="#F8FAFC"/>
  <rect x="248" y="186" width="214" height="10" rx="5" fill="#64748B"/>
  <rect x="1110" y="158" width="132" height="30" rx="15" fill="#1E293B"/>
  <rect x="1260" y="152" width="166" height="42" rx="21" fill="url(#paint3_linear)"/>
  <rect x="174" y="272" width="560" height="278" rx="30" fill="#121F34" stroke="rgba(255,255,255,0.06)"/>
  <rect x="206" y="306" width="154" height="14" rx="7" fill="#FDE68A"/>
  <rect x="206" y="338" width="434" height="44" rx="22" fill="#F8FAFC"/>
  <rect x="206" y="396" width="376" height="18" rx="9" fill="#94A3B8"/>
  <rect x="206" y="440" width="198" height="48" rx="24" fill="url(#paint4_linear)"/>
  <rect x="772" y="272" width="656" height="540" rx="32" fill="#0F1B2D" stroke="rgba(255,255,255,0.06)"/>
  <rect x="812" y="314" width="252" height="138" rx="24" fill="#14253D"/>
  <rect x="1092" y="314" width="296" height="138" rx="24" fill="#14253D"/>
  <rect x="812" y="480" width="576" height="162" rx="24" fill="#132238"/>
  <rect x="812" y="672" width="272" height="100" rx="24" fill="#122033"/>
  <rect x="1116" y="672" width="272" height="100" rx="24" fill="#122033"/>
  <rect x="850" y="352" width="88" height="12" rx="6" fill="#64748B"/>
  <rect x="850" y="380" width="102" height="28" rx="14" fill="#F8FAFC"/>
  <rect x="1130" y="352" width="120" height="12" rx="6" fill="#64748B"/>
  <rect x="1130" y="380" width="124" height="28" rx="14" fill="#F8FAFC"/>
  <rect x="850" y="528" width="160" height="12" rx="6" fill="#64748B"/>
  <rect x="850" y="556" width="462" height="18" rx="9" fill="#F8FAFC"/>
  <rect x="850" y="592" width="428" height="14" rx="7" fill="#94A3B8"/>
  <rect x="850" y="713" width="102" height="12" rx="6" fill="#64748B"/>
  <rect x="1154" y="713" width="124" height="12" rx="6" fill="#64748B"/>
  <path d="M868 922H1372" stroke="rgba(255,255,255,0.08)" stroke-width="2"/>
  <rect x="174" y="620" width="560" height="252" rx="30" fill="#111D30" stroke="rgba(255,255,255,0.06)"/>
  <rect x="210" y="658" width="188" height="12" rx="6" fill="#64748B"/>
  <rect x="210" y="694" width="444" height="28" rx="14" fill="#F8FAFC"/>
  <rect x="210" y="744" width="240" height="18" rx="9" fill="#94A3B8"/>
  <rect x="210" y="808" width="142" height="14" rx="7" fill="#FDE68A"/>
  <text x="176" y="1012" fill="#F8FAFC" font-family="Arial, sans-serif" font-size="56" font-weight="700">cyberHr</text>
  <text x="176" y="1062" fill="#94A3B8" font-family="Arial, sans-serif" font-size="28" letter-spacing="2">MULTI-TENANT HRMS PLATFORM</text>
  <defs>
    <radialGradient id="paint0_radial" cx="0" cy="0" r="1" gradientUnits="userSpaceOnUse" gradientTransform="translate(1275 210) rotate(90) scale(190)">
      <stop stop-color="#F59E0B"/>
      <stop offset="1" stop-color="#F59E0B" stop-opacity="0"/>
    </radialGradient>
    <radialGradient id="paint1_radial" cx="0" cy="0" r="1" gradientUnits="userSpaceOnUse" gradientTransform="translate(310 950) rotate(90) scale(280)">
      <stop stop-color="#0EA5E9"/>
      <stop offset="1" stop-color="#0EA5E9" stop-opacity="0"/>
    </radialGradient>
    <linearGradient id="paint2_linear" x1="174" y1="158" x2="226" y2="210" gradientUnits="userSpaceOnUse">
      <stop stop-color="#FCD34D"/>
      <stop offset="1" stop-color="#F97316"/>
    </linearGradient>
    <linearGradient id="paint3_linear" x1="1260" y1="152" x2="1426" y2="194" gradientUnits="userSpaceOnUse">
      <stop stop-color="#F59E0B"/>
      <stop offset="1" stop-color="#F97316"/>
    </linearGradient>
    <linearGradient id="paint4_linear" x1="206" y1="440" x2="404" y2="488" gradientUnits="userSpaceOnUse">
      <stop stop-color="#F59E0B"/>
      <stop offset="1" stop-color="#F97316"/>
    </linearGradient>
  </defs>
</svg>
