<svg width="1600" height="1200" viewBox="0 0 1600 1200" fill="none" xmlns="http://www.w3.org/2000/svg">
  <rect width="1600" height="1200" fill="#F2F6FA"/>
  <circle cx="215" cy="214" r="180" fill="#FDE68A" fill-opacity="0.35"/>
  <circle cx="1368" cy="988" r="230" fill="#BFDBFE" fill-opacity="0.4"/>
  <rect x="84" y="84" width="1432" height="1032" rx="40" fill="#FFFFFF" stroke="#D8E2EC"/>
  <rect x="132" y="128" width="1336" height="72" rx="24" fill="#F8FBFD" stroke="#E2E8F0"/>
  <rect x="164" y="148" width="54" height="40" rx="12" fill="#FFFFFF" stroke="#CBD5E1"/>
  <rect x="236" y="150" width="156" height="12" rx="6" fill="#0F172A"/>
  <rect x="236" y="172" width="210" height="9" rx="4.5" fill="#64748B"/>
  <rect x="664" y="146" width="100" height="34" rx="17" fill="#E2E8F0"/>
  <rect x="780" y="146" width="114" height="34" rx="17" fill="#E2E8F0"/>
  <rect x="910" y="146" width="100" height="34" rx="17" fill="#E2E8F0"/>
  <rect x="1178" y="142" width="130" height="40" rx="20" fill="#FFFFFF" stroke="#CBD5E1"/>
  <rect x="1324" y="142" width="112" height="40" rx="20" fill="#0F172A"/>
  <rect x="132" y="242" width="1336" height="304" rx="34" fill="url(#paint0_linear)"/>
  <rect x="184" y="292" width="278" height="18" rx="9" fill="#0F172A" fill-opacity="0.7"/>
  <rect x="184" y="334" width="672" height="54" rx="27" fill="#0F172A"/>
  <rect x="184" y="406" width="554" height="20" rx="10" fill="#334155"/>
  <rect x="184" y="448" width="186" height="52" rx="26" fill="#EA580C"/>
  <rect x="958" y="282" width="450" height="222" rx="28" fill="#FFFFFF" fill-opacity="0.72" stroke="#E2E8F0"/>
  <rect x="1000" y="322" width="114" height="12" rx="6" fill="#94A3B8"/>
  <rect x="1000" y="354" width="246" height="26" rx="13" fill="#0F172A"/>
  <rect x="1000" y="404" width="356" height="14" rx="7" fill="#64748B"/>
  <rect x="132" y="586" width="426" height="208" rx="28" fill="#FFFFFF" stroke="#E2E8F0"/>
  <rect x="586" y="586" width="426" height="208" rx="28" fill="#FFFFFF" stroke="#E2E8F0"/>
  <rect x="1040" y="586" width="428" height="208" rx="28" fill="#FFFFFF" stroke="#E2E8F0"/>
  <rect x="168" y="622" width="160" height="12" rx="6" fill="#94A3B8"/>
  <rect x="168" y="654" width="240" height="28" rx="14" fill="#0F172A"/>
  <rect x="168" y="704" width="304" height="14" rx="7" fill="#64748B"/>
  <rect x="622" y="622" width="142" height="12" rx="6" fill="#94A3B8"/>
  <rect x="622" y="654" width="256" height="28" rx="14" fill="#0F172A"/>
  <rect x="622" y="704" width="314" height="14" rx="7" fill="#64748B"/>
  <rect x="1076" y="622" width="148" height="12" rx="6" fill="#94A3B8"/>
  <rect x="1076" y="654" width="260" height="28" rx="14" fill="#0F172A"/>
  <rect x="1076" y="704" width="320" height="14" rx="7" fill="#64748B"/>
  <rect x="132" y="834" width="1336" height="210" rx="32" fill="#F8FBFD" stroke="#E2E8F0"/>
  <rect x="176" y="878" width="420" height="20" rx="10" fill="#0F172A"/>
  <rect x="176" y="914" width="692" height="16" rx="8" fill="#64748B"/>
  <rect x="1096" y="874" width="198" height="56" rx="28" fill="#0F172A"/>
  <rect x="1310" y="874" width="114" height="56" rx="28" fill="#FFFFFF" stroke="#CBD5E1"/>
  <text x="136" y="1086" fill="#0F172A" font-family="Arial, sans-serif" font-size="54" font-weight="700">Develozy</text>
  <text x="136" y="1128" fill="#64748B" font-family="Arial, sans-serif" font-size="26" letter-spacing="2">DIGITAL STUDIO FOR STARTUPS TO ENTERPRISE</text>
  <defs>
    <linearGradient id="paint0_linear" x1="132" y1="242" x2="1468" y2="546" gradientUnits="userSpaceOnUse">
      <stop stop-color="#EAF2F8"/>
      <stop offset="0.55" stop-color="#FFFFFF"/>
      <stop offset="1" stop-color="#EEF4F9"/>
    </linearGradient>
  </defs>
</svg>
